<svg width="256" height="256" viewBox="0 0 256 256" fill="none" xmlns="http://www.w3.org/2000/svg">
  <rect width="256" height="256" rx="52" fill="#060606"/>
  <g fill="#F3F3F3">
    <rect x="47" y="57" width="22" height="86" rx="11" transform="rotate(-9 47 57)"/>
    <rect x="95" y="42" width="22" height="101" rx="11" transform="rotate(-9 95 42)"/>
    <rect x="144" y="40" width="22" height="104" rx="11" transform="rotate(11 144 40)"/>
    <rect x="43" y="129" width="22" height="74" rx="11"/>
    <rect x="88" y="125" width="22" height="78" rx="11"/>
    <rect x="133" y="121" width="22" height="82" rx="11"/>
    <rect x="176" y="121" width="22" height="60" rx="11" transform="rotate(45 176 121)"/>
  </g>
  <path d="M44 108C82 99 126 97 171 102" stroke="#060606" stroke-width="11" stroke-linecap="round"/>
</svg>
