<svg width="1200" height="900" viewBox="0 0 1200 900" fill="none" xmlns="http://www.w3.org/2000/svg">
  <rect width="1200" height="900" rx="56" fill="#0D1720"/>
  <rect x="58" y="58" width="1084" height="784" rx="40" fill="url(#paint0_linear)"/>
  <circle cx="188" cy="178" r="68" fill="#F2C87D" fill-opacity="0.18"/>
  <circle cx="1030" cy="724" r="110" fill="#6AA5A6" fill-opacity="0.16"/>
  <rect x="124" y="154" width="952" height="96" rx="24" fill="#102B3A"/>
  <rect x="156" y="188" width="160" height="24" rx="12" fill="#F2C87D" fill-opacity="0.92"/>
  <rect x="732" y="184" width="136" height="28" rx="14" fill="#DDE9EA" fill-opacity="0.9"/>
  <rect x="892" y="184" width="144" height="28" rx="14" fill="#DDE9EA" fill-opacity="0.44"/>
  <rect x="124" y="292" width="334" height="416" rx="28" fill="#F4F0E8" fill-opacity="0.96"/>
  <rect x="498" y="292" width="578" height="186" rx="28" fill="#12384B"/>
  <rect x="530" y="332" width="168" height="18" rx="9" fill="#DDE9EA"/>
  <rect x="530" y="372" width="242" height="18" rx="9" fill="#DDE9EA" fill-opacity="0.58"/>
  <rect x="530" y="422" width="514" height="16" rx="8" fill="#DDE9EA" fill-opacity="0.22"/>
  <rect x="498" y="522" width="274" height="186" rx="28" fill="#183F45"/>
  <rect x="802" y="522" width="274" height="186" rx="28" fill="#F2C87D" fill-opacity="0.2"/>
  <rect x="172" y="360" width="238" height="30" rx="15" fill="#133648"/>
  <rect x="172" y="418" width="180" height="18" rx="9" fill="#133648" fill-opacity="0.42"/>
  <rect x="172" y="460" width="198" height="18" rx="9" fill="#133648" fill-opacity="0.42"/>
  <rect x="172" y="542" width="174" height="110" rx="24" fill="#F2C87D" fill-opacity="0.18"/>
  <rect x="368" y="542" width="42" height="110" rx="21" fill="#133648" fill-opacity="0.22"/>
  <text x="124" y="788" fill="#F4F0E8" font-family="Avenir Next, Arial, sans-serif" font-size="34" font-weight="600" letter-spacing="6">GRANT COUNTY</text>
  <text x="124" y="830" fill="#D0D9DA" font-family="Avenir Next, Arial, sans-serif" font-size="22" letter-spacing="3">PUBLIC WEBSITE CONCEPT THUMBNAIL</text>
  <defs>
    <linearGradient id="paint0_linear" x1="108.5" y1="100.5" x2="1037" y2="809.5" gradientUnits="userSpaceOnUse">
      <stop stop-color="#152A36"/>
      <stop offset="1" stop-color="#0C141C"/>
    </linearGradient>
  </defs>
</svg>
